<?xml version="1.0" standalone="no"?>
<!DOCTYPE svg PUBLIC "-//W3C//DTD SVG 20010904//EN"
 "http://www.w3.org/TR/2001/REC-SVG-20010904/DTD/svg10.dtd">
<svg version="1.0" xmlns="http://www.w3.org/2000/svg"
 width="300.000000pt" height="48.000000pt" viewBox="0 0 300.000000 48.000000"
 preserveAspectRatio="xMidYMid meet">
<metadata>
Created by potrace 1.10, written by Peter Selinger 2001-2011
</metadata>
<g transform="translate(0.000000,48.000000) scale(0.100000,-0.100000)"
fill="#00008b" stroke="none">
<path d="M551 457 c-55 -19 -71 -50 -82 -162 -6 -55 -12 -101 -15 -104 -2 -2
-39 -5 -81 -7 -81 -2 -184 -30 -191 -51 -2 -9 5 -10 30 -2 69 20 153 28 193
19 40 -9 95 -58 95 -83 -1 -6 -9 -3 -18 9 -14 16 -23 19 -40 13 -27 -10 -28
-33 -2 -59 33 -33 51 -24 68 36 12 41 10 58 -10 101 -7 13 -8 57 -3 119 7 90
9 100 36 127 25 24 32 27 45 16 18 -15 40 2 31 25 -7 19 -11 19 -56 3z m-65
-398 c3 -6 1 -16 -4 -21 -13 -13 -45 8 -36 23 7 12 31 11 40 -2z"/>
<path d="M132 378 c-30 -15 -37 -49 -19 -84 20 -38 88 -116 95 -110 2 3 -1 12
-7 20 -10 12 -7 17 16 30 27 14 29 13 46 -17 15 -27 17 -28 11 -7 -10 41 -10
44 9 48 11 2 21 -5 27 -20 l10 -23 -3 25 c-1 19 3 26 20 28 14 2 23 -3 26 -15
4 -17 5 -17 6 1 1 14 6 17 27 12 17 -5 23 -3 19 4 -3 5 -17 10 -31 10 -18 0
-24 5 -24 21 0 19 4 21 40 16 23 -3 38 -1 34 4 -3 5 -22 9 -44 9 -34 0 -50 12
-50 37 0 3 26 3 58 0 43 -5 51 -4 32 4 -38 15 -271 21 -298 7z m122 -33 c16
-24 16 -25 -8 -25 -14 0 -30 10 -40 25 -16 24 -16 25 8 25 14 0 30 -10 40 -25z
m73 6 c10 -16 9 -20 -12 -24 -18 -3 -29 2 -40 19 -15 23 -15 24 12 24 17 0 33
-8 40 -19z m-143 -20 c15 -17 15 -19 1 -25 -29 -11 -45 -6 -45 12 0 36 19 41
44 13z m166 -37 c0 -10 -8 -14 -22 -12 -27 4 -35 25 -11 30 23 6 33 0 33 -18z
m-63 -1 c5 -15 -28 -26 -41 -13 -8 8 -7 14 4 20 17 11 32 8 37 -7z m-60 -19
c2 -6 -9 -16 -23 -23 -26 -12 -43 -4 -44 21 0 17 61 19 67 2z"/>
<path d="M2333 317 l5 -34 -40 1 c-69 1 -108 -69 -77 -137 19 -43 81 -59 134
-35 26 11 26 12 23 122 -3 109 -4 111 -27 114 -22 4 -23 1 -18 -31z m0 -122
c0 -44 -3 -50 -22 -53 -31 -5 -51 15 -51 52 0 39 17 58 49 54 22 -3 24 -8 24
-53z"/>
<path d="M754 317 c-2 -7 -3 -58 -2 -113 3 -91 5 -99 23 -99 16 0 20 7 20 36
0 36 1 37 45 42 74 8 102 66 59 121 -18 23 -28 26 -80 26 -40 0 -61 -4 -65
-13z m97 -27 c38 -21 17 -70 -30 -70 -24 0 -26 3 -24 37 1 21 2 39 2 41 2 6
34 1 52 -8z"/>
<path d="M1620 310 c0 -16 7 -20 36 -20 l36 0 -3 -83 c-3 -86 2 -107 27 -107
11 0 14 19 14 95 l0 95 35 0 c28 0 35 4 35 20 0 19 -7 20 -90 20 -83 0 -90 -1
-90 -20z"/>
<path d="M980 281 c-14 -4 -26 -15 -28 -24 -3 -15 2 -17 37 -11 27 4 46 2 56
-6 22 -18 9 -30 -34 -30 -42 0 -71 -23 -71 -58 0 -44 77 -67 135 -40 23 10 25
16 25 73 0 47 -4 66 -18 78 -22 20 -68 28 -102 18z m70 -116 c0 -21 -5 -25
-30 -25 -41 0 -43 37 -2 43 15 2 28 5 30 6 1 0 2 -10 2 -24z"/>
<path d="M1184 276 c-36 -16 -44 -32 -44 -86 0 -51 39 -84 87 -77 23 4 33 2
33 -7 0 -26 -29 -39 -70 -32 -32 5 -40 3 -40 -9 0 -21 48 -38 84 -31 57 12 66
29 66 131 0 62 -4 96 -12 103 -23 18 -72 22 -104 8z m71 -76 c0 -40 -3 -45
-24 -48 -27 -4 -51 20 -51 49 0 25 29 51 54 47 18 -3 21 -10 21 -48z"/>
<path d="M1394 280 c-59 -24 -72 -104 -25 -151 62 -61 151 -20 151 71 0 58
-72 103 -126 80z m65 -44 c17 -20 10 -77 -11 -90 -26 -16 -52 4 -56 43 -4 36
12 61 38 61 10 0 23 -6 29 -14z"/>
<path d="M1850 277 c-52 -26 -64 -112 -21 -151 28 -26 86 -32 116 -12 35 23
24 35 -25 29 -25 -4 -46 -1 -55 7 -23 19 -18 30 14 30 56 0 91 12 91 30 0 32
-12 50 -41 65 -34 18 -47 18 -79 2z m70 -42 c16 -20 14 -21 -37 -28 -47 -6
-51 -2 -26 25 20 22 46 23 63 3z"/>
<path d="M2042 275 l-33 -14 3 -78 c3 -70 5 -78 23 -78 18 0 20 7 20 70 1 66
2 70 24 73 35 5 45 -12 42 -68 -3 -52 10 -80 35 -80 23 0 19 142 -4 163 -27
24 -72 29 -110 12z"/>
<path d="M2474 280 c-31 -12 -54 -49 -54 -88 0 -67 81 -114 141 -82 31 17 24
41 -11 34 -39 -8 -80 3 -80 21 0 10 10 15 29 15 60 0 91 11 91 34 -1 28 -21
53 -54 66 -32 12 -34 12 -62 0z m66 -45 c14 -17 10 -19 -47 -29 -36 -6 -38 -4
-23 25 13 23 52 25 70 4z"/>
<path d="M2673 283 c-36 -7 -44 -27 -41 -104 2 -61 6 -74 21 -77 15 -3 17 5
17 66 0 73 6 82 51 82 23 0 25 25 3 34 -9 3 -19 5 -22 5 -4 -1 -17 -4 -29 -6z"/>
<path d="M2814 280 c-30 -12 -54 -49 -54 -82 0 -89 90 -130 151 -69 71 71 -6
190 -97 151z m64 -42 c7 -7 12 -26 12 -43 0 -36 -15 -55 -46 -55 -24 0 -34 17
-34 59 0 45 40 67 68 39z"/>
<path d="M263 112 c-13 -4 -32 -15 -43 -25 -16 -14 -18 -21 -10 -37 17 -32 50
-45 68 -27 14 14 13 18 -1 41 -16 24 -16 25 13 31 16 3 49 3 74 0 24 -4 55 -4
68 0 22 8 22 8 3 16 -24 9 -141 10 -172 1z m5 -66 c3 -13 -1 -17 -14 -14 -11
2 -20 11 -22 22 -3 13 1 17 14 14 11 -2 20 -11 22 -22z"/>
</g>
</svg>
