<?xml version="1.0" standalone="no"?>
<!DOCTYPE svg PUBLIC "-//W3C//DTD SVG 20010904//EN"
 "http://www.w3.org/TR/2001/REC-SVG-20010904/DTD/svg10.dtd">
<svg version="1.0" xmlns="http://www.w3.org/2000/svg"
 width="300.000000pt" height="48.000000pt" viewBox="0 0 300.000000 48.000000"
 preserveAspectRatio="xMidYMid meet">
<metadata>
Created by potrace 1.10, written by Peter Selinger 2001-2011
</metadata>
<g transform="translate(0.000000,48.000000) scale(0.100000,-0.100000)"
fill="#00008b" stroke="none">
<path d="M476 470 c-16 -5 -33 -15 -37 -22 -13 -20 -10 -86 6 -153 23 -96 22
-101 -25 -97 -71 7 -240 -42 -218 -63 2 -3 42 5 88 16 72 18 91 20 135 10 77
-17 121 -67 106 -119 -1 -1 -10 2 -21 8 -28 15 -27 44 1 35 15 -5 19 -4 15 4
-11 17 -66 14 -66 -3 0 -19 47 -56 71 -56 14 0 17 9 17 47 0 46 -20 103 -37
103 -10 0 -52 162 -53 208 -1 44 18 64 55 56 24 -5 28 -3 25 12 -4 22 -22 26
-62 14z"/>
<path d="M111 391 c-35 -9 -51 -25 -51 -51 0 -16 150 -163 158 -155 3 3 -3 14
-12 24 -17 19 -17 20 5 32 20 10 25 8 46 -15 25 -30 31 -23 8 8 -12 16 -12 22
-2 28 19 12 25 10 41 -19 8 -16 15 -24 16 -20 0 5 -5 17 -10 28 -15 28 17 39
38 13 14 -18 14 -18 8 0 -5 15 -2 18 19 14 13 -3 22 -1 19 3 -3 5 -16 9 -29 9
-19 0 -35 16 -35 35 0 2 17 6 38 8 36 4 35 4 -8 5 -34 2 -48 7 -59 24 -13 21
-13 21 50 15 39 -4 58 -3 49 2 -21 13 -249 22 -289 12z m113 -62 c-9 -16 -30
-10 -53 15 -21 23 -22 24 -4 28 20 5 66 -30 57 -43z m58 34 c24 -21 23 -33 -2
-33 -18 0 -60 32 -60 45 0 12 45 4 62 -12z m-133 -55 c-28 -11 -39 -2 -39 28
l0 25 30 -23 c30 -22 30 -23 9 -30z m181 -9 c0 -5 -11 -9 -24 -9 -28 0 -43 27
-18 33 18 4 42 -10 42 -24z m-62 -6 c6 -19 -33 -16 -49 3 -11 14 -9 15 16 12
16 -1 30 -9 33 -15z m-65 -30 c-22 -17 -38 -16 -53 2 -10 12 -8 16 11 24 15 5
30 4 42 -3 16 -10 16 -12 0 -23z"/>
<path d="M2333 317 l5 -34 -40 1 c-69 1 -108 -69 -77 -137 19 -43 81 -59 134
-35 26 11 26 12 23 122 -3 109 -4 111 -27 114 -22 4 -23 1 -18 -31z m0 -122
c0 -44 -3 -50 -22 -53 -31 -5 -51 15 -51 52 0 39 17 58 49 54 22 -3 24 -8 24
-53z"/>
<path d="M754 317 c-2 -7 -3 -58 -2 -113 3 -91 5 -99 23 -99 16 0 20 7 20 36
0 36 1 37 45 42 74 8 102 66 59 121 -18 23 -28 26 -80 26 -40 0 -61 -4 -65
-13z m97 -27 c38 -21 17 -70 -30 -70 -24 0 -26 3 -24 37 1 21 2 39 2 41 2 6
34 1 52 -8z"/>
<path d="M1620 310 c0 -16 7 -20 36 -20 l36 0 -3 -83 c-3 -86 2 -107 27 -107
11 0 14 19 14 95 l0 95 35 0 c28 0 35 4 35 20 0 19 -7 20 -90 20 -83 0 -90 -1
-90 -20z"/>
<path d="M980 281 c-14 -4 -26 -15 -28 -24 -3 -15 2 -17 37 -11 27 4 46 2 56
-6 22 -18 9 -30 -34 -30 -42 0 -71 -23 -71 -58 0 -44 77 -67 135 -40 23 10 25
16 25 73 0 47 -4 66 -18 78 -22 20 -68 28 -102 18z m70 -116 c0 -21 -5 -25
-30 -25 -41 0 -43 37 -2 43 15 2 28 5 30 6 1 0 2 -10 2 -24z"/>
<path d="M1184 276 c-36 -16 -44 -32 -44 -86 0 -51 39 -84 87 -77 23 4 33 2
33 -7 0 -26 -29 -39 -70 -32 -32 5 -40 3 -40 -9 0 -21 48 -38 84 -31 57 12 66
29 66 131 0 62 -4 96 -12 103 -23 18 -72 22 -104 8z m71 -76 c0 -40 -3 -45
-24 -48 -27 -4 -51 20 -51 49 0 25 29 51 54 47 18 -3 21 -10 21 -48z"/>
<path d="M1394 280 c-59 -24 -72 -104 -25 -151 62 -61 151 -20 151 71 0 58
-72 103 -126 80z m65 -44 c17 -20 10 -77 -11 -90 -26 -16 -52 4 -56 43 -4 36
12 61 38 61 10 0 23 -6 29 -14z"/>
<path d="M1850 277 c-57 -29 -64 -117 -12 -158 21 -16 36 -20 71 -16 40 4 65
22 55 38 -2 4 -22 5 -44 2 -25 -4 -46 -1 -55 7 -25 20 -17 30 23 30 75 0 94
16 76 65 -7 17 -54 45 -76 45 -7 0 -24 -6 -38 -13z m70 -42 c16 -20 14 -21
-37 -28 -47 -6 -51 -2 -26 25 20 22 46 23 63 3z"/>
<path d="M2042 275 l-33 -14 3 -78 c3 -70 5 -78 23 -78 18 0 20 7 20 70 1 66
2 70 24 73 35 5 45 -12 42 -68 -3 -52 10 -80 35 -80 23 0 19 142 -4 163 -27
24 -72 29 -110 12z"/>
<path d="M2474 280 c-31 -12 -54 -49 -54 -88 0 -67 81 -114 141 -82 31 17 24
41 -11 34 -39 -8 -80 3 -80 21 0 10 10 15 29 15 60 0 91 11 91 34 -1 28 -21
53 -54 66 -32 12 -34 12 -62 0z m66 -45 c14 -17 10 -19 -47 -29 -36 -6 -38 -4
-23 25 13 23 52 25 70 4z"/>
<path d="M2673 283 c-36 -7 -44 -27 -41 -104 2 -61 6 -74 21 -77 15 -3 17 5
17 66 0 73 6 82 51 82 23 0 25 25 3 34 -9 3 -19 5 -22 5 -4 -1 -17 -4 -29 -6z"/>
<path d="M2814 280 c-30 -12 -54 -49 -54 -82 0 -89 90 -130 151 -69 71 71 -6
190 -97 151z m64 -42 c7 -7 12 -26 12 -43 0 -36 -15 -55 -46 -55 -24 0 -34 17
-34 59 0 45 40 67 68 39z"/>
<path d="M310 123 c-39 -12 -60 -28 -60 -44 0 -19 45 -59 66 -59 35 0 20 55
-19 69 -18 7 -10 10 35 16 32 4 69 4 83 1 14 -4 37 -3 52 0 25 7 25 8 8 15
-22 8 -141 10 -165 2z m0 -58 c7 -9 10 -19 6 -22 -8 -9 -38 9 -44 25 -5 17 23
15 38 -3z"/>
</g>
</svg>
