<?xml version="1.0" standalone="no"?>
<!DOCTYPE svg PUBLIC "-//W3C//DTD SVG 20010904//EN"
 "http://www.w3.org/TR/2001/REC-SVG-20010904/DTD/svg10.dtd">
<svg version="1.0" xmlns="http://www.w3.org/2000/svg"
 width="300.000000pt" height="48.000000pt" viewBox="0 0 300.000000 48.000000"
 preserveAspectRatio="xMidYMid meet">
<metadata>
Created by potrace 1.10, written by Peter Selinger 2001-2011
</metadata>
<g transform="translate(0.000000,48.000000) scale(0.100000,-0.100000)"
fill="#00008b" stroke="none">
<path d="M550 457 c-49 -17 -60 -46 -60 -167 l0 -106 -72 0 c-98 0 -218 -37
-196 -59 2 -2 26 3 53 11 80 25 174 22 218 -5 39 -24 71 -66 42 -55 -8 4 -15
10 -15 14 0 10 -38 1 -46 -11 -16 -26 47 -79 70 -60 18 15 20 109 2 136 -22
33 -37 191 -22 235 10 31 15 35 46 34 39 0 55 13 38 33 -12 15 -13 15 -58 0z
m-12 -411 c3 -13 -1 -17 -14 -14 -11 2 -20 11 -22 22 -3 13 1 17 14 14 11 -2
20 -11 22 -22z"/>
<path d="M143 375 c-39 -28 -29 -59 43 -132 37 -38 59 -58 50 -46 -17 21 -17
22 12 37 29 15 31 15 37 -3 3 -11 13 -25 22 -33 15 -12 15 -11 0 18 -9 17 -13
34 -10 38 14 13 34 5 43 -19 5 -14 12 -25 15 -25 2 0 0 11 -5 24 -5 13 -6 27
-3 30 13 13 42 5 46 -11 4 -16 5 -16 6 1 1 13 6 17 21 13 11 -3 18 -1 14 4 -3
5 -13 9 -24 9 -15 0 -30 18 -30 37 0 3 18 3 40 0 23 -3 38 -1 34 4 -3 5 -23 9
-44 9 -30 0 -42 5 -51 22 -11 21 -10 21 47 15 41 -5 54 -4 42 3 -9 6 -76 13
-150 16 -114 5 -136 4 -155 -11z m127 -30 l23 -25 -23 0 c-23 0 -60 25 -60 42
0 17 38 7 60 -17z m70 10 c15 -18 12 -22 -14 -27 -10 -2 -24 6 -33 20 -15 21
-14 22 10 22 13 0 30 -7 37 -15z m-144 -22 c19 -12 22 -18 12 -24 -26 -17 -48
-10 -48 16 0 30 3 30 36 8z m163 -51 c-28 -5 -45 20 -21 29 10 4 22 0 30 -10
11 -14 10 -16 -9 -19z m-50 14 c10 -12 8 -16 -10 -21 -24 -8 -46 14 -26 27 17
11 23 10 36 -6z m-60 -19 c8 -11 5 -17 -15 -26 -22 -10 -28 -9 -39 6 -12 15
-11 19 3 25 26 10 39 9 51 -5z"/>
<path d="M2333 317 l5 -34 -40 1 c-69 1 -108 -69 -77 -137 19 -43 81 -59 134
-35 26 11 26 12 23 122 -3 109 -4 111 -27 114 -22 4 -23 1 -18 -31z m0 -122
c0 -44 -3 -50 -22 -53 -31 -5 -51 15 -51 52 0 39 17 58 49 54 22 -3 24 -8 24
-53z"/>
<path d="M754 317 c-2 -7 -3 -58 -2 -113 3 -91 5 -99 23 -99 16 0 20 7 20 36
0 36 1 37 45 42 74 8 102 66 59 121 -18 23 -28 26 -80 26 -40 0 -61 -4 -65
-13z m97 -27 c38 -21 17 -70 -30 -70 -24 0 -26 3 -24 37 1 21 2 39 2 41 2 6
34 1 52 -8z"/>
<path d="M1620 310 c0 -16 7 -20 36 -20 l36 0 -3 -83 c-3 -86 2 -107 27 -107
11 0 14 19 14 95 l0 95 35 0 c28 0 35 4 35 20 0 19 -7 20 -90 20 -83 0 -90 -1
-90 -20z"/>
<path d="M980 281 c-14 -4 -26 -15 -28 -24 -3 -15 2 -17 37 -11 27 4 46 2 56
-6 22 -18 9 -30 -34 -30 -42 0 -71 -23 -71 -58 0 -44 77 -67 135 -40 23 10 25
16 25 73 0 47 -4 66 -18 78 -22 20 -68 28 -102 18z m70 -116 c0 -21 -5 -25
-30 -25 -41 0 -43 37 -2 43 15 2 28 5 30 6 1 0 2 -10 2 -24z"/>
<path d="M1184 276 c-36 -16 -44 -32 -44 -86 0 -51 39 -84 87 -77 23 4 33 2
33 -7 0 -26 -29 -39 -70 -32 -32 5 -40 3 -40 -9 0 -21 48 -38 84 -31 57 12 66
29 66 131 0 62 -4 96 -12 103 -23 18 -72 22 -104 8z m71 -76 c0 -40 -3 -45
-24 -48 -27 -4 -51 20 -51 49 0 25 29 51 54 47 18 -3 21 -10 21 -48z"/>
<path d="M1394 280 c-59 -24 -72 -104 -25 -151 62 -61 151 -20 151 71 0 58
-72 103 -126 80z m65 -44 c17 -20 10 -77 -11 -90 -26 -16 -52 4 -56 43 -4 36
12 61 38 61 10 0 23 -6 29 -14z"/>
<path d="M1850 277 c-57 -29 -64 -117 -12 -158 21 -16 36 -20 71 -16 40 4 65
22 55 38 -2 4 -22 5 -44 2 -25 -4 -46 -1 -55 7 -25 20 -17 30 23 30 75 0 94
16 76 65 -7 17 -54 45 -76 45 -7 0 -24 -6 -38 -13z m70 -42 c16 -20 14 -21
-37 -28 -47 -6 -51 -2 -26 25 20 22 46 23 63 3z"/>
<path d="M2042 275 l-33 -14 3 -78 c3 -70 5 -78 23 -78 18 0 20 7 20 70 1 66
2 70 24 73 35 5 45 -12 42 -68 -3 -52 10 -80 35 -80 23 0 19 142 -4 163 -27
24 -72 29 -110 12z"/>
<path d="M2474 280 c-31 -12 -54 -49 -54 -88 0 -67 81 -114 141 -82 31 17 24
41 -11 34 -39 -8 -80 3 -80 21 0 10 10 15 29 15 60 0 91 11 91 34 -1 28 -21
53 -54 66 -32 12 -34 12 -62 0z m66 -45 c14 -17 10 -19 -47 -29 -36 -6 -38 -4
-23 25 13 23 52 25 70 4z"/>
<path d="M2673 283 c-36 -7 -44 -27 -41 -104 2 -61 6 -74 21 -77 15 -3 17 5
17 66 0 73 6 82 51 82 23 0 25 25 3 34 -9 3 -19 5 -22 5 -4 -1 -17 -4 -29 -6z"/>
<path d="M2814 280 c-30 -12 -54 -49 -54 -82 0 -89 90 -130 151 -69 71 71 -6
190 -97 151z m64 -42 c7 -7 12 -26 12 -43 0 -36 -15 -55 -46 -55 -24 0 -34 17
-34 59 0 45 40 67 68 39z"/>
<path d="M315 112 c-46 -15 -58 -28 -51 -56 7 -27 48 -52 67 -40 14 8 11 36
-7 55 -14 16 -13 18 15 24 16 3 50 3 75 0 24 -4 55 -3 68 1 l23 8 -25 7 c-31
9 -138 9 -165 1z m4 -56 c9 -10 9 -16 1 -21 -12 -7 -40 11 -40 26 0 14 26 10
39 -5z"/>
</g>
</svg>
